<svg width="32" height="32" viewBox="0 0 32 32" fill="none" xmlns="http://www.w3.org/2000/svg">
<rect x="0.358398" width="31.3397" height="31.3397" rx="5" fill="#FBBA3E"/>
<g clip-path="url(#clip0_6014_2191)">
<path d="M14.8792 16.2449C15.1259 16.5748 15.4407 16.8477 15.8022 17.0452C16.1637 17.2427 16.5635 17.3602 16.9744 17.3896C17.3853 17.419 17.7977 17.3598 18.1837 17.2158C18.5696 17.0718 18.9201 16.8465 19.2113 16.5552L20.935 14.8315C21.4583 14.2897 21.7479 13.564 21.7414 12.8107C21.7348 12.0575 21.4327 11.337 20.9 10.8043C20.3674 10.2717 19.6469 9.96954 18.8936 9.963C18.1404 9.95645 17.4147 10.246 16.8729 10.7693L15.8846 11.7518" stroke="white" stroke-linecap="round" stroke-linejoin="round"/>
<path d="M17.1775 15.0954C16.9307 14.7655 16.6159 14.4926 16.2544 14.2951C15.8929 14.0976 15.4932 13.9801 15.0823 13.9507C14.6714 13.9213 14.259 13.9806 13.873 14.1245C13.487 14.2685 13.1365 14.4938 12.8453 14.7852L11.1216 16.5088C10.5983 17.0507 10.3087 17.7763 10.3153 18.5296C10.3218 19.2828 10.624 20.0034 11.1566 20.536C11.6893 21.0686 12.4098 21.3708 13.163 21.3773C13.9163 21.3839 14.6419 21.0943 15.1838 20.571L16.1663 19.5885" stroke="white" stroke-linecap="round" stroke-linejoin="round"/>
</g>
<defs>
<clipPath id="clip0_6014_2191">
<rect width="13.7895" height="13.7895" fill="white" transform="translate(9.13354 8.77539)"/>
</clipPath>
</defs>
</svg>
