<svg width="32" height="32" viewBox="0 0 32 32" fill="none" xmlns="http://www.w3.org/2000/svg">
<rect x="0.3396" width="31.3397" height="31.3397" rx="5" fill="url(#paint0_linear_6014_2182)"/>
<path d="M17.163 18.8687L17.163 18.8687C16.8341 18.7678 16.5106 18.6501 16.1938 18.516L16.1934 18.5158C14.7899 17.9194 13.7789 16.6884 13.3094 16.0251L13.3071 16.0217L13.3071 16.0217C13.2999 16.0113 13.2949 16.0042 13.2914 15.9994C13.29 15.9975 13.2891 15.9963 13.2886 15.9957L13.283 15.9892L13.2767 15.9806C13.1992 15.876 13.027 15.6358 12.8735 15.3282C12.7224 15.0254 12.5765 14.6321 12.5758 14.2241C12.5712 13.9606 12.6209 13.6989 12.722 13.4554C12.8226 13.213 12.9719 12.9939 13.1606 12.8116L13.1877 12.7834C13.2507 12.7133 13.3271 12.6565 13.4124 12.6164C13.5 12.5752 13.5951 12.5525 13.6918 12.5497L13.7005 12.5495V12.5496H13.7012H13.7018H13.7025H13.7031H13.7037H13.7044H13.705H13.7057H13.7063H13.707H13.7076H13.7082H13.7089H13.7095H13.7102H13.7108H13.7114H13.7121H13.7127H13.7134H13.714H13.7147H13.7153H13.7159H13.7166H13.7172H13.7179H13.7185H13.7191H13.7198H13.7204H13.7211H13.7217H13.7224H13.723H13.7236H13.7243H13.7249H13.7256H13.7262H13.7268H13.7275H13.7281H13.7288H13.7294H13.73H13.7307H13.7313H13.732H13.7326H13.7332H13.7339H13.7345H13.7352H13.7358H13.7364H13.7371H13.7377H13.7384H13.739H13.7396H13.7403H13.7409H13.7416H13.7422H13.7428H13.7435H13.7441H13.7448H13.7454H13.746H13.7467H13.7473H13.748H13.7486H13.7492H13.7499H13.7505H13.7511H13.7518H13.7524H13.7531H13.7537H13.7543H13.755H13.7556H13.7562H13.7569H13.7575H13.7582H13.7588H13.7594H13.7601H13.7607H13.7613H13.762H13.7626H13.7633H13.7639H13.7645H13.7652H13.7658H13.7664H13.7671H13.7677H13.7684H13.769H13.7696H13.7703H13.7709H13.7715H13.7722H13.7728H13.7734H13.7741H13.7747H13.7753H13.776H13.7766H13.7772H13.7779H13.7785H13.7792H13.7798H13.7804H13.7811H13.7817H13.7823H13.783H13.7836H13.7842H13.7849H13.7855H13.7861H13.7868H13.7874H13.788H13.7887H13.7893H13.7899H13.7906H13.7912H13.7918H13.7925H13.7931H13.7937H13.7944H13.795H13.7956H13.7962H13.7969H13.7975H13.7981H13.7988H13.7994H13.8H13.8007H13.8013H13.8019H13.8026H13.8032H13.8038H13.8045H13.8051H13.8057H13.8063H13.807H13.8076H13.8082H13.8089H13.8095H13.8101H13.8107H13.8114H13.812H13.8126H13.8133H13.8139H13.8145H13.8151H13.8158H13.8164H13.817H13.8177H13.8183H13.8189H13.8195H13.8202H13.8208H13.8214H13.822H13.8227H13.8233H13.8239H13.8246H13.8252H13.8258H13.8264H13.8271H13.8277H13.8283H13.8289H13.8296H13.8302H13.8308H13.8314H13.8321H13.8327H13.8333H13.8339H13.8346H13.8352H13.8358H13.8364H13.837H13.8377H13.8383H13.8389H13.8395H13.8402H13.8408H13.8414H13.842H13.8427H13.8433H13.8439H13.8445H13.8451H13.8458H13.8464H13.847H13.8476H13.8482H13.8489H13.8495H13.8501H13.8507H13.8513H13.852H13.8526H13.8532H13.8538H13.8544H13.8551H13.8557H13.8563H13.8569H13.8575H13.8582H13.8588H13.8594H13.86H13.8606H13.8612H13.8619H13.8625H13.8631H13.8637H13.8643H13.8649H13.8656H13.8662H13.8668H13.8674H13.868H13.8686H13.8693H13.8699H13.8705H13.8711H13.8717H13.8723H13.8729H13.8736H13.8742H13.8748H13.8754H13.876H13.8766H13.8772H13.8778H13.8785H13.8791H13.8797H13.8803H13.8809H13.8815H13.8821H13.8827H13.8834H13.884H13.8846H13.8852H13.8858H13.8864H13.887H13.8876H13.8882H13.8888H13.8895H13.8901H13.8907H13.8913H13.8919H13.8925H13.8931H13.8937H13.8943H13.8949H13.8955H13.8961H13.8967H13.8974H13.898H13.8986H13.8992H13.8998H13.9004H13.901H13.9016H13.9022H13.9028H13.9034H13.904H13.9046H13.9052H13.9058H13.9064H13.907H13.9076H13.9082H13.9088H13.9094H13.91H13.9106H13.9113H13.9119H13.9125H13.9131H13.9137H13.9143H13.9149H13.9155H13.9161H13.9167H13.9173H13.9179H13.9185H13.9191H13.9197H13.9203H13.9209H13.9215H13.922H13.9226H13.9232H13.9238H13.9244H13.925H13.9256H13.9262H13.9268H13.9274H13.928H13.9286H13.9292H13.9298H13.9304H13.931H13.9316H13.9322H13.9328H13.9334H13.934H13.9346H13.9352H13.9357H13.9363H13.9369H13.9375H13.9381H13.9387H13.9393H13.9399H13.9405H13.9411H13.9417H13.9423H13.9428H13.9434H13.944H13.9446H13.9452H13.9458H13.9464H13.947H13.9476H13.9481H13.9487H13.9493H13.9499H13.9505H13.9511H13.9517H13.9523H13.9528H13.9534H13.954H13.9546H13.9552H13.9558H13.9563H13.9569H13.9575H13.9581H13.9587H13.9593H13.9599H13.9604H13.961H13.9616H13.9622H13.9628H13.9633H13.9639H13.9645H13.9651H13.9657H13.9662H13.9668H13.9674H13.968H13.9686H13.9691H13.9697H13.9703H13.9709H13.9715H13.972H13.9726H13.9732H13.9738H13.9743H13.9749H13.9755H13.9761H13.9766H13.9772H13.9778H13.9784H13.9789H13.9795H13.9801H13.9807H13.9812H13.9818H13.9824H13.983H13.9835H13.9841H13.9847H13.9852H13.9858H13.9864H13.987H13.9875H13.9881H13.9887H13.9892H13.9898H13.9904H13.9909H13.9915H13.9921H13.9927H13.9932H13.9938H13.9944H13.9949H13.9955H13.9961H13.9966H13.9972H13.9978H13.9983H13.9989H13.9994H14H14.0006H14.0011H14.0017H14.0023H14.0028H14.0034H14.004H14.0045H14.0051H14.0056H14.0062H14.0068H14.0073H14.0079H14.0084H14.009H14.0096H14.0101H14.0107H14.0112H14.0118H14.0123H14.0129H14.0135H14.0632C14.0643 12.5496 14.0656 12.5496 14.0671 12.5496C14.0993 12.5493 14.2175 12.5483 14.3247 12.6432C14.4008 12.7106 14.4452 12.8051 14.4762 12.8773L14.4766 12.8781L14.4766 12.8781C14.491 12.9118 14.5073 12.9501 14.525 12.9919C14.5656 13.0873 14.6137 13.2004 14.6634 13.3161L14.6647 13.319L14.6647 13.319C14.8603 13.788 14.9722 14.0554 14.9954 14.1017C15.0151 14.1412 15.0418 14.2013 15.0477 14.2731C15.0553 14.3675 15.0235 14.4352 15.01 14.4622L15.0067 14.4688L15.0066 14.4688L14.9875 14.5048C14.9481 14.5946 14.8956 14.6782 14.8318 14.7528L14.7475 14.8537C14.6966 14.9196 14.6424 14.9828 14.5851 15.0433L14.5689 15.0604L14.5502 15.0747C14.5191 15.0987 14.498 15.1334 14.4911 15.172C14.4842 15.2107 14.492 15.2506 14.5129 15.2838L14.5174 15.291L14.5173 15.291C14.7665 15.7123 15.0777 16.0937 15.4404 16.4223C15.8008 16.741 16.2121 16.9971 16.6572 17.1799L16.6629 17.1822L16.6629 17.1822L16.7638 17.2261L16.786 17.2358L16.8064 17.2489C16.8432 17.2725 16.8874 17.2821 16.9307 17.2757C16.974 17.2693 17.0135 17.2475 17.042 17.2142L17.0461 17.2093L17.0462 17.2094C17.1335 17.1115 17.4609 16.7327 17.5727 16.5686C17.5729 16.5683 17.5731 16.568 17.5733 16.5678L17.5765 16.5699L17.588 16.5468M17.163 18.8687L17.5749 16.573L17.5753 16.5724L17.58 16.5756L17.8213 16.7364L17.5979 16.5845L17.5765 16.57C17.5792 16.5648 17.5816 16.5603 17.5838 16.5567C17.5863 16.5523 17.5887 16.5485 17.5906 16.5455C17.5944 16.5396 17.5977 16.535 17.5997 16.5322L17.6047 16.5256L17.607 16.5227C17.6075 16.522 17.6079 16.5216 17.6067 16.523L17.6028 16.5278C17.5988 16.5328 17.5937 16.5391 17.588 16.5468M17.163 18.8687L17.1664 18.8697C17.5223 18.9744 17.8973 18.9973 18.2633 18.9367C18.4661 18.9054 18.7215 18.7886 18.9297 18.6563C19.0381 18.5874 19.1455 18.5069 19.2361 18.4191C19.3215 18.3364 19.4111 18.2289 19.4593 18.1017C19.553 17.8708 19.6002 17.6238 19.5983 17.3746L19.5969 17.2021L19.4471 17.1165C19.4069 17.0935 19.3477 17.064 19.2978 17.0413L19.207 16.9966L19.2058 16.9961C19.0956 16.9424 18.8453 16.8213 18.6058 16.7076C18.3823 16.6015 18.1424 16.4893 18.0525 16.4561M17.163 18.8687L18.0525 16.4561M17.588 16.5468L17.6749 16.3731L17.8951 16.4117C17.949 16.4212 18.0017 16.436 18.0525 16.4561M17.588 16.5468L18.0525 16.4561" stroke="white" stroke-width="0.6"/>
<path d="M12.052 11.6834L12.052 11.6834L12.0531 11.6823C13.1448 10.614 14.6114 10.0158 16.1388 10.0158C17.6662 10.0158 19.1329 10.614 20.2245 11.6823L20.2247 11.6825C20.7595 12.205 21.1845 12.8292 21.4746 13.5184C21.7647 14.2075 21.9142 14.9477 21.9142 15.6954C21.9142 16.4432 21.7647 17.1834 21.4746 17.8725C21.1845 18.5617 20.7595 19.1859 20.2247 19.7084L20.2239 19.7093C19.3094 20.6098 18.1226 21.1825 16.8486 21.3379C15.5745 21.4934 14.2849 21.2229 13.1807 20.5686C13.1086 20.5259 13.0219 20.5153 12.9417 20.5393L10.4535 21.2844L11.2085 18.8508C11.2341 18.7683 11.2229 18.6787 11.1777 18.6051C10.5147 17.5239 10.24 16.249 10.3989 14.9907C10.5578 13.7323 11.1409 12.5658 12.052 11.6834Z" stroke="white" stroke-width="0.6" stroke-linecap="round" stroke-linejoin="round"/>
<defs>
<linearGradient id="paint0_linear_6014_2182" x1="16.0095" y1="0" x2="16.0095" y2="31.3397" gradientUnits="userSpaceOnUse">
<stop stop-color="#C4C4C4"/>
<stop offset="0.0001" stop-color="#57D163"/>
<stop offset="1" stop-color="#23B33A"/>
</linearGradient>
</defs>
</svg>
