<svg width="32" height="32" viewBox="0 0 32 32" fill="none" xmlns="http://www.w3.org/2000/svg">
<rect x="0.0187988" width="31.3397" height="31.3397" rx="5" fill="#1DA1F2"/>
<g clip-path="url(#clip0_6014_2187)">
<path d="M21.1469 11.2032C20.6717 11.5384 20.1456 11.7948 19.5888 11.9624C19.2899 11.6188 18.8928 11.3753 18.451 11.2647C18.0092 11.1542 17.5441 11.182 17.1187 11.3444C16.6932 11.5068 16.3279 11.7959 16.0721 12.1727C15.8163 12.5495 15.6825 12.9957 15.6886 13.4511V13.9473C14.8165 13.9699 13.9524 13.7765 13.1733 13.3843C12.3941 12.9921 11.724 12.4133 11.2226 11.6994C11.2226 11.6994 9.2378 16.1654 13.7037 18.1502C12.6818 18.8439 11.4644 19.1917 10.2302 19.1426C14.6961 21.6237 20.1545 19.1426 20.1545 13.4362C20.154 13.298 20.1407 13.1601 20.1148 13.0243C20.6212 12.5249 20.9786 11.8943 21.1469 11.2032V11.2032Z" stroke="white" stroke-width="0.7" stroke-linecap="round"/>
</g>
<defs>
<clipPath id="clip0_6014_2187">
<rect width="11.9091" height="11.9091" fill="white" transform="translate(9.73413 9.71484)"/>
</clipPath>
</defs>
</svg>
